<svg viewBox="0 0 24 24" fill="none" xmlns="http://www.w3.org/2000/svg">
  <path d="M12 0C5.37 0 0 5.37 0 12s5.37 12 12 12 12-5.37 12-12S18.63 0 12 0Zm.62 19.83c-1.6.45-3.15-.06-4.24-1.47l-.9-2.33c.84-.25 1.93-.66 2.78-1.23 1.18-.78 1.82-1.53 1.82-1.53-.07-.11-.64 1.01-1.96 2.75-.74.97-1.54 2.06-2.14 2.87a8.3 8.3 0 0 1-1.68-3.71l4.82-13.27h.03l4.76 13.28-.02.01c-.33.98-.88 1.86-1.62 2.59-.96.93-2.1 1.4-3.49 1.27l-.16-.02Zm-.23-5.76c-.11.2-.55.98-1.01 1.7-.52.84-1.07 1.72-1.58 2.54-.41.67-.78 1.27-1.09 1.72a8.2 8.2 0 0 1-3.34-6.45c0-3.8 2.59-6.99 6.03-7.95l-.38 1.1c-.04.12-.09.23-.13.34-1.35 4.17-2.11 6.69-2.5 8Z" fill="#00669B"/>
  <path d="M2.99 9.67c0-1.49.38-2.89 1.04-4.12L.91 11.4a8.17 8.17 0 0 1 2.08-1.73ZM23.09 11.4l-3.12-5.85a8.24 8.24 0 0 1 1.04 4.12 8.17 8.17 0 0 1-2.08 1.73l4.16 0ZM18.25 3.21l-4.16 7.48-.27.49-2.1-6.7 4.53-.27h2Z" fill="#00669B"/>
</svg>